<svg xmlns="http://www.w3.org/2000/svg" width="1600" height="900" viewBox="0 0 1600 900">
<defs>
  <linearGradient id="navy" x1="0" x2="1" y1="0" y2="1"><stop stop-color="#08213C"/><stop offset="1" stop-color="#12345A"/></linearGradient>
  <linearGradient id="teal" x1="0" x2="1"><stop stop-color="#1E7F86"/><stop offset="1" stop-color="#42A5A9"/></linearGradient>
  <filter id="shadow" x="-20%" y="-20%" width="140%" height="140%"><feDropShadow dx="0" dy="8" stdDeviation="10" flood-color="#0B1F33" flood-opacity=".12"/></filter>
  <pattern id="grid" width="42" height="42" patternUnits="userSpaceOnUse"><path d="M42 0H0V42" fill="none" stroke="#DDE6EE" stroke-width="1"/></pattern>
</defs>
<rect width="1600" height="900" fill="#F4F7FA"/>
<path d="M0 705 C260 650, 420 780, 705 720 C980 662, 1160 610, 1600 690 L1600 900 L0 900Z" fill="#E7F1F4"/>
<path d="M0 742 C300 690, 440 825, 710 760 C990 692, 1180 648, 1600 722" fill="none" stroke="#C9E2E6" stroke-width="7" opacity=".8"/>
<text x="70" y="70" font-size="18" fill="#627D98" font-weight="600">三峡大坝的历史与现在</text>
<text x="1530" y="70" font-size="16" fill="#627D98" text-anchor="end">04</text>
<text x="70" y="128" font-size="44" fill="#102A43" font-weight="900">攻坚克难：三峡工程建设历程</text>
<rect x="72" y="150" width="168" height="7" rx="3.5" fill="#C51F2C"/>
<rect x="120" y="330" width="1360" height="16" rx="8" fill="#C9E2E6"/><circle cx="150" cy="338" r="28" fill="#C51F2C" stroke="#FFFFFF" stroke-width="7"/><rect x="64" y="210" width="172" height="105" rx="16" fill="#FFFFFF" filter="url(#shadow)"/><text x="150" y="252" font-size="31" fill="#C51F2C" font-weight="900" text-anchor="middle" opacity="1"><tspan x="150" dy="0">1992</tspan></text><text x="150" y="288" font-size="19" fill="#334E68" font-weight="650" text-anchor="middle" opacity="1"><tspan x="150" dy="0">批准建设</tspan></text><circle cx="405" cy="338" r="28" fill="#1E7F86" stroke="#FFFFFF" stroke-width="7"/><rect x="319" y="405" width="172" height="105" rx="16" fill="#FFFFFF" filter="url(#shadow)"/><text x="405" y="447" font-size="31" fill="#1E7F86" font-weight="900" text-anchor="middle" opacity="1"><tspan x="405" dy="0">1994</tspan></text><text x="405" y="483" font-size="19" fill="#334E68" font-weight="650" text-anchor="middle" opacity="1"><tspan x="405" dy="0">正式开工</tspan></text><circle cx="660" cy="338" r="28" fill="#1E7F86" stroke="#FFFFFF" stroke-width="7"/><rect x="574" y="210" width="172" height="105" rx="16" fill="#FFFFFF" filter="url(#shadow)"/><text x="660" y="252" font-size="31" fill="#1E7F86" font-weight="900" text-anchor="middle" opacity="1"><tspan x="660" dy="0">1997</tspan></text><text x="660" y="288" font-size="19" fill="#334E68" font-weight="650" text-anchor="middle" opacity="1"><tspan x="660" dy="0">大江截流</tspan></text><circle cx="915" cy="338" r="28" fill="#C51F2C" stroke="#FFFFFF" stroke-width="7"/><rect x="829" y="405" width="172" height="105" rx="16" fill="#FFFFFF" filter="url(#shadow)"/><text x="915" y="447" font-size="31" fill="#C51F2C" font-weight="900" text-anchor="middle" opacity="1"><tspan x="915" dy="0">2003</tspan></text><text x="915" y="483" font-size="19" fill="#334E68" font-weight="650" text-anchor="middle" opacity="1"><tspan x="915" dy="0">首批发电</tspan><tspan x="915" dy="25.650000000000002">船闸通航</tspan></text><circle cx="1170" cy="338" r="28" fill="#1E7F86" stroke="#FFFFFF" stroke-width="7"/><rect x="1084" y="210" width="172" height="105" rx="16" fill="#FFFFFF" filter="url(#shadow)"/><text x="1170" y="252" font-size="31" fill="#1E7F86" font-weight="900" text-anchor="middle" opacity="1"><tspan x="1170" dy="0">2006</tspan></text><text x="1170" y="288" font-size="19" fill="#334E68" font-weight="650" text-anchor="middle" opacity="1"><tspan x="1170" dy="0">主体完工</tspan></text><circle cx="1425" cy="338" r="28" fill="#C51F2C" stroke="#FFFFFF" stroke-width="7"/><rect x="1339" y="405" width="172" height="105" rx="16" fill="#FFFFFF" filter="url(#shadow)"/><text x="1425" y="447" font-size="31" fill="#C51F2C" font-weight="900" text-anchor="middle" opacity="1"><tspan x="1425" dy="0">2012</tspan></text><text x="1425" y="483" font-size="19" fill="#334E68" font-weight="650" text-anchor="middle" opacity="1"><tspan x="1425" dy="0">主要任务完成</tspan></text><rect x="160" y="640" width="1280" height="82" rx="18" fill="#EDF7F8" stroke="#C9E2E6"/><text x="800" y="693" font-size="29" fill="#12345A" font-weight="800" text-anchor="middle" opacity="1"><tspan x="800" dy="0">建设周期长、技术难度高、组织协同复杂，是我国重大工程建设能力的集中展示</tspan></text></svg>